<?xml version="1.0" encoding="UTF-8" standalone="no"?>
<svg
   xmlns:dc="http://purl.org/dc/elements/1.1/"
   xmlns:cc="http://creativecommons.org/ns#"
   xmlns:rdf="http://www.w3.org/1999/02/22-rdf-syntax-ns#"
   xmlns:svg="http://www.w3.org/2000/svg"
   xmlns="http://www.w3.org/2000/svg"
   xmlns:sodipodi="http://sodipodi.sourceforge.net/DTD/sodipodi-0.dtd"
   xmlns:inkscape="http://www.inkscape.org/namespaces/inkscape"
   viewBox="0 0 12 12"
   height="12"
   width="12"
   version="1.1"
   id="svg6"
   sodipodi:docname="alpinehut.p.16.svg"
   inkscape:version="0.92.1 r15371">
  <metadata
     id="metadata12">
    <rdf:RDF>
      <cc:Work
         rdf:about="">
        <dc:format>image/svg+xml</dc:format>
        <dc:type
           rdf:resource="http://purl.org/dc/dcmitype/StillImage" />
        <dc:title></dc:title>
      </cc:Work>
    </rdf:RDF>
  </metadata>
  <defs
     id="defs10" />
  <sodipodi:namedview
     pagecolor="#ffffff"
     bordercolor="#666666"
     borderopacity="1"
     objecttolerance="10"
     gridtolerance="10"
     guidetolerance="10"
     inkscape:pageopacity="0"
     inkscape:pageshadow="2"
     inkscape:window-width="1920"
     inkscape:window-height="1017"
     id="namedview8"
     showgrid="false"
     inkscape:zoom="4.9166667"
     inkscape:cx="7.2870166"
     inkscape:cy="-21.631044"
     inkscape:window-x="1912"
     inkscape:window-y="-8"
     inkscape:window-maximized="1"
     inkscape:current-layer="svg6" />
  <path
     style="fill:#000000;stroke-width:0.09999462"
     d="M 1.300254,8.093469 V 4.186941 L 1.075265,4.256511 C 0.951523,4.294771 0.683329,4.410298 0.47928,4.513236 0.275233,4.616173 0.083992,4.700395 0.054303,4.700395 0.024613,4.700395 3.23e-4,4.31806 3.23e-4,3.850763 V 3.001131 L 3.000161,1.500567 6.000001,2e-6 8.999839,1.500567 11.999677,3.001131 v 0.849632 c 0,0.467297 -0.02429,0.849632 -0.05398,0.849632 -0.02969,0 -0.22093,-0.08422 -0.424977,-0.187159 C 11.316671,4.410298 11.048479,4.294772 10.924734,4.256511 l -0.224986,-0.06957 v 3.906528 3.906529 H 10.050867 9.401988 L 9.375898,7.786422 9.349818,3.572845 7.754,2.886685 C 6.8763,2.509297 6.088841,2.202181 6.004094,2.204204 5.919344,2.206204 5.130043,2.513423 4.250092,2.886861 l -1.599914,0.678978 -0.02609,4.21708 -0.02608,4.217079 H 1.949127 1.300249 Z m 2.69515,3.750869 C 3.851986,11.67153 3.827549,11.798398 4.723735,8.062997 5.235588,5.929546 5.379463,5.600342 5.80001,5.600342 c 0.316636,0 0.571396,0.336391 0.704205,0.929848 C 6.626924,7.078512 6.626955,7.078544 7.13842,7.21493 7.529105,7.319109 7.657064,7.401328 7.680197,7.563046 7.696857,7.679494 7.644717,7.800007 7.564335,7.830852 7.348737,7.913582 6.369587,7.630717 6.23515,7.446864 5.979589,7.097363 6.041152,7.542904 6.52944,9.576681 c 0.469945,1.957388 0.497653,2.13904 0.348964,2.28773 -0.199438,0.199439 -0.643512,0.112567 -0.713769,-0.13963 -0.02678,-0.09612 -0.19474,-0.804725 -0.37325,-1.574683 L 5.46682,8.750173 5.095114,10.225787 C 4.890674,11.037375 4.667648,11.768585 4.5995,11.8507 4.438849,12.044271 4.158887,12.041323 3.995404,11.8443 Z m 3.305279,-0.011 C 7.301783,11.542467 8.274111,6.422887 8.352124,6.296661 8.390804,6.234081 8.4576,6.220551 8.50057,6.266591 8.616315,6.390602 7.571242,11.926225 7.42274,11.975724 7.3552,11.998244 7.300269,11.934164 7.300683,11.833338 Z M 3.920309,7.395351 C 3.663436,7.292273 3.671658,7.13196 3.994419,5.950321 4.15711,5.354692 4.160785,5.35056 4.502759,5.37893 5.05826,5.42502 5.054099,5.34166 4.589959,7.125258 4.487413,7.519324 4.358665,7.571252 3.920316,7.395351 Z M 5.551767,5.337811 C 5.302632,5.088675 5.393141,4.588416 5.720431,4.405577 5.969939,4.266193 6.012439,4.270634 6.270404,4.463057 6.614386,4.719638 6.665084,4.9361 6.455949,5.25528 6.266198,5.544877 5.801268,5.587317 5.551767,5.33782 Z"
     id="path4569"
     inkscape:connector-curvature="0" />
</svg>
