<?xml version="1.0" encoding="UTF-8" standalone="no"?>
<svg
   xmlns:dc="http://purl.org/dc/elements/1.1/"
   xmlns:cc="http://creativecommons.org/ns#"
   xmlns:rdf="http://www.w3.org/1999/02/22-rdf-syntax-ns#"
   xmlns:svg="http://www.w3.org/2000/svg"
   xmlns="http://www.w3.org/2000/svg"
   xmlns:sodipodi="http://sodipodi.sourceforge.net/DTD/sodipodi-0.dtd"
   xmlns:inkscape="http://www.inkscape.org/namespaces/inkscape"
   viewBox="0 0 12 12"
   height="12"
   width="12"
   version="1.1"
   id="svg6"
   sodipodi:docname="bus_station.n.16.svg"
   inkscape:version="0.92.1 r15371">
  <metadata
     id="metadata12">
    <rdf:RDF>
      <cc:Work
         rdf:about="">
        <dc:format>image/svg+xml</dc:format>
        <dc:type
           rdf:resource="http://purl.org/dc/dcmitype/StillImage" />
        <dc:title></dc:title>
      </cc:Work>
    </rdf:RDF>
  </metadata>
  <defs
     id="defs10" />
  <sodipodi:namedview
     pagecolor="#ffffff"
     bordercolor="#666666"
     borderopacity="1"
     objecttolerance="10"
     gridtolerance="10"
     guidetolerance="10"
     inkscape:pageopacity="0"
     inkscape:pageshadow="2"
     inkscape:window-width="1920"
     inkscape:window-height="1017"
     id="namedview8"
     showgrid="false"
     inkscape:zoom="9.8333333"
     inkscape:cx="37.002439"
     inkscape:cy="-7.7735781"
     inkscape:window-x="1912"
     inkscape:window-y="-8"
     inkscape:window-maximized="1"
     inkscape:current-layer="svg6" />
  <rect
     style="fill:none;stroke:none;visibility:hidden"
     y="0"
     x="0"
     height="12"
     width="12"
     id="rect2" />
  <path
     style="fill:#000405;fill-opacity:1;stroke:none;stroke-width:0.82002002;stroke-opacity:1"
     d="M 1.9140625 0.49609375 C 1.1286779 0.49609375 0.49609375 1.1286779 0.49609375 1.9140625 L 0.49609375 10.085938 C 0.49609375 10.871322 1.1286779 11.503906 1.9140625 11.503906 L 10.085938 11.503906 C 10.871322 11.503906 11.503906 10.871322 11.503906 10.085938 L 11.503906 1.9140625 C 11.503906 1.1286779 10.871322 0.49609375 10.085938 0.49609375 L 1.9140625 0.49609375 z M 3 1 L 9 1 L 10 2 L 10 10 L 9.34375 10 C 9.34375 10 9.3477186 11 8.53125 11 C 7.8645921 11 7.75 10 7.75 10 L 4.25 10 C 4.25 10 4.1578795 11 3.46875 11 C 2.7571489 11 2.65625 10 2.65625 10 L 2 10 L 2 2 L 3 1 z M 4 2 L 4 3 L 8 3 L 8 2 L 4 2 z M 3 4 L 3 7 L 9 7 L 9 4 L 3 4 z M 3 8 L 3 9 L 4 9 L 4 8 L 3 8 z M 8 8 L 8 9 L 9 9 L 9 8 L 8 8 z "
     id="rect4536" />
</svg>
