<?xml version="1.0" encoding="UTF-8" standalone="no"?>
<!-- Created with Inkscape (http://www.inkscape.org/) -->

<svg
   xmlns:dc="http://purl.org/dc/elements/1.1/"
   xmlns:cc="http://creativecommons.org/ns#"
   xmlns:rdf="http://www.w3.org/1999/02/22-rdf-syntax-ns#"
   xmlns:svg="http://www.w3.org/2000/svg"
   xmlns="http://www.w3.org/2000/svg"
   xmlns:sodipodi="http://sodipodi.sourceforge.net/DTD/sodipodi-0.dtd"
   xmlns:inkscape="http://www.inkscape.org/namespaces/inkscape"
   version="1.1"
   width="14"
   height="14"
   viewBox="0 0 14 14"
   id="svg2"
   sodipodi:docname="bed.svg"
   inkscape:version="0.92.1 r15371">
  <sodipodi:namedview
     pagecolor="#ffffff"
     bordercolor="#666666"
     borderopacity="1"
     objecttolerance="10"
     gridtolerance="10"
     guidetolerance="10"
     inkscape:pageopacity="0"
     inkscape:pageshadow="2"
     inkscape:window-width="1920"
     inkscape:window-height="1017"
     id="namedview7"
     showgrid="false"
     inkscape:zoom="11.9198"
     inkscape:cx="33.30416"
     inkscape:cy="-3.9338126"
     inkscape:window-x="1912"
     inkscape:window-y="-8"
     inkscape:window-maximized="1"
     inkscape:current-layer="svg2" />
  <metadata
     id="metadata8">
    <rdf:RDF>
      <cc:Work
         rdf:about="">
        <dc:format>image/svg+xml</dc:format>
        <dc:type
           rdf:resource="http://purl.org/dc/dcmitype/StillImage" />
        <dc:title></dc:title>
      </cc:Work>
    </rdf:RDF>
  </metadata>
  <defs
     id="defs6" />
  <rect
     width="14"
     height="14"
     x="0"
     y="0"
     id="canvas"
     style="fill:none;stroke:none;visibility:hidden" />
  <path
     style="fill:#000000;stroke-width:0.11664412"
     d="M 1e-6,10.266034 V 8.8079823 h 6.296877 6.296877 l 0.03107,-3.1158196 0.03107,-3.1158199 0.320771,-0.1793764 c 0.28864,-0.1614089 0.352902,-0.1614057 0.641542,3.1e-5 L 13.93898,2.5764049 13.96949,7.1502453 14,11.724085 H 13.298783 12.597565 V 10.907576 10.091067 H 6.998647 1.399729 v 0.816509 0.816509 H 0.699865 0 Z m 0,-3.5343167 c 0,-0.642839 0.05231,-1.0787816 0.139973,-1.1664412 0.105004,-0.1050038 1.547479,-0.139973 5.773883,-0.139973 h 5.633912 v 1.1664412 1.166441 H 5.773885 9.9999999e-7 Z"
     id="path4508"
     inkscape:connector-curvature="0" />
</svg>
