<?xml version="1.0" encoding="UTF-8" standalone="no"?>
<!-- Created with Inkscape (http://www.inkscape.org/) -->

<svg
   xmlns:dc="http://purl.org/dc/elements/1.1/"
   xmlns:cc="http://creativecommons.org/ns#"
   xmlns:rdf="http://www.w3.org/1999/02/22-rdf-syntax-ns#"
   xmlns:svg="http://www.w3.org/2000/svg"
   xmlns="http://www.w3.org/2000/svg"
   xmlns:sodipodi="http://sodipodi.sourceforge.net/DTD/sodipodi-0.dtd"
   xmlns:inkscape="http://www.inkscape.org/namespaces/inkscape"
   version="1.1"
   width="14"
   height="14"
   viewBox="0 0 14 14"
   id="svg2"
   sodipodi:docname="dairy.svg"
   inkscape:version="0.92.1 r15371">
  <sodipodi:namedview
     pagecolor="#ffffff"
     bordercolor="#666666"
     borderopacity="1"
     objecttolerance="10"
     gridtolerance="10"
     guidetolerance="10"
     inkscape:pageopacity="0"
     inkscape:pageshadow="2"
     inkscape:window-width="1920"
     inkscape:window-height="1017"
     id="namedview7"
     showgrid="false"
     inkscape:zoom="4.2142857"
     inkscape:cx="-50.489601"
     inkscape:cy="-13.719021"
     inkscape:window-x="-8"
     inkscape:window-y="-8"
     inkscape:window-maximized="1"
     inkscape:current-layer="svg2" />
  <metadata
     id="metadata8">
    <rdf:RDF>
      <cc:Work
         rdf:about="">
        <dc:format>image/svg+xml</dc:format>
        <dc:type
           rdf:resource="http://purl.org/dc/dcmitype/StillImage" />
        <dc:title></dc:title>
      </cc:Work>
    </rdf:RDF>
  </metadata>
  <defs
     id="defs6" />
  <rect
     width="14"
     height="14"
     x="0"
     y="0"
     id="canvas"
     style="fill:none;stroke:none;visibility:hidden" />
  <path
     style="fill:#000000;stroke-width:0.11666667"
     d="M 0.0777815,13.914297 C 0.0350015,13.871517 1.5e-6,11.826645 1.5e-6,9.3701327 v -4.466387 l 0.466667,-1.075954 c 0.442987,-1.021358 0.466666,-1.13596 0.466666,-2.258537 0,-0.76245499 0.05185,-1.25349599 0.145957,-1.38219099 0.131485,-0.179816 0.40622,-0.196486 2.770833,-0.168131 l 2.624877,0.03147 0.05833,1.39999999 c 0.05441,1.3058 0.08777,1.465144 0.495834,2.368151 l 0.4375,0.968151 v 1.744349 1.744349 h 3.2666665 3.266667 V 11.133737 13.99207 H 7.0777765 c -3.807223,0 -6.957223,-0.035 -7,-0.07778 z m 3.422222,-3.130555 V 8.2754087 h 0.758333 0.758334 v -1.623661 c 0,-1.367659 0.03679,-1.707963 0.233333,-2.158333 0.128333,-0.29407 0.336467,-0.770923 0.462521,-1.059673 l 0.229187,-0.525 h -2.195858 -2.195857 l -0.48333,1.097749 -0.48333,1.097748 v 4.01614 c 0,2.2088783 0.035,4.0511413 0.07778,4.0939183 0.04278,0.04278 0.699028,0.07778 1.458334,0.07778 h 1.380555 z m 5.414629,2.032715 c 0.367207,-0.436401 0.385991,-0.902852 0.05338,-1.325694 -0.343619,-0.436841 -0.74228,-0.569609 -1.228513,-0.409139 -0.731785,0.241512 -0.953654,1.121373 -0.437461,1.734833 0.251483,0.298872 0.386438,0.358952 0.806295,0.358952 0.419858,0 0.554812,-0.06008 0.806296,-0.358952 z m 3.7379195,-1.156418 c 0.805911,-0.805911 0.224496,-2.1596303 -0.927549,-2.1596303 -0.432318,0 -0.585139,0.06463 -0.901923,0.38141 -0.8851425,0.8851433 -0.167908,2.3494463 1.071139,2.1868353 0.243089,-0.0319 0.543484,-0.193767 0.758333,-0.408615 z M 5.8250055,10.846534 c 0.355292,-0.190146 0.528319,-0.76074 0.356484,-1.1755843 -0.167478,-0.404329 -0.430756,-0.578874 -0.873153,-0.578874 -0.442396,0 -0.705675,0.174545 -0.873153,0.578874 -0.167161,0.4035623 -0.0047,0.9722613 0.334286,1.1703433 0.246826,0.144219 0.790807,0.14692 1.055536,0.0052 z m 1.05041,-4.2336253 c -0.0078,-1.627125 -0.01606,-1.679877 -0.39039,-2.479167 l -0.38247,-0.816666 -0.367942,0.803636 c -0.358429,0.782856 -0.367943,0.846965 -0.367943,2.479167 v 1.67553 h 0.758333 0.758333 z m -0.925412,-4.9875 V 0.69207571 h -2.158333 -2.158334 v 0.93333299 0.933333 h 2.158334 2.158333 z"
     id="path4547"
     inkscape:connector-curvature="0" />
</svg>
