<?xml version="1.0" encoding="UTF-8" standalone="no"?>
<!-- Created with Inkscape (http://www.inkscape.org/) -->

<svg
   xmlns:dc="http://purl.org/dc/elements/1.1/"
   xmlns:cc="http://creativecommons.org/ns#"
   xmlns:rdf="http://www.w3.org/1999/02/22-rdf-syntax-ns#"
   xmlns:svg="http://www.w3.org/2000/svg"
   xmlns="http://www.w3.org/2000/svg"
   xmlns:sodipodi="http://sodipodi.sourceforge.net/DTD/sodipodi-0.dtd"
   xmlns:inkscape="http://www.inkscape.org/namespaces/inkscape"
   version="1.1"
   width="14"
   height="14"
   viewBox="0 0 14 14"
   id="svg2"
   sodipodi:docname="music.svg"
   inkscape:version="0.92.1 r15371">
  <sodipodi:namedview
     pagecolor="#ffffff"
     bordercolor="#666666"
     borderopacity="1"
     objecttolerance="10"
     gridtolerance="10"
     guidetolerance="10"
     inkscape:pageopacity="0"
     inkscape:pageshadow="2"
     inkscape:window-width="1920"
     inkscape:window-height="1017"
     id="namedview7"
     showgrid="false"
     inkscape:zoom="16.857143"
     inkscape:cx="14.786616"
     inkscape:cy="9.1166687"
     inkscape:window-x="1912"
     inkscape:window-y="-8"
     inkscape:window-maximized="1"
     inkscape:current-layer="svg2" />
  <metadata
     id="metadata8">
    <rdf:RDF>
      <cc:Work
         rdf:about="">
        <dc:format>image/svg+xml</dc:format>
        <dc:type
           rdf:resource="http://purl.org/dc/dcmitype/StillImage" />
        <dc:title></dc:title>
      </cc:Work>
    </rdf:RDF>
  </metadata>
  <defs
     id="defs6" />
  <rect
     width="14"
     height="14"
     x="0"
     y="0"
     id="canvas"
     style="fill:none;stroke:none;visibility:hidden" />
  <path
     style="fill:#000000;stroke-width:0.1167041"
     d="M 1.3369427,13.835356 C 0.75294268,13.628019 0.15154268,13.092717 0.05055268,12.69036 c -0.11723,-0.467102 0.0313,-0.854033 0.53943,-1.405297 C 1.2101227,10.612285 2.0376627,10.263939 3.1800127,10.194802 l 0.90446,-0.05474 V 5.2613491 c 0,-5.50296602 -0.11182,-4.93114902 0.99198,-5.07266102 0.32094,-0.04115 0.67543,-0.100192 0.78776,-0.131216 0.19259,-0.05319 0.20423,0.28661 0.20423,5.96432702 v 6.0207329 l -0.46234,0.501574 c -0.59522,0.645737 -1.42862,1.094839 -2.42254,1.305452 -0.96242,0.203937 -1.23817,0.201816 -1.84662,-0.0142 z m 4.70232,0.102342 c -0.41331,-0.06261 -0.40416,-0.142309 0.0584,-0.508285 0.30172,-0.238741 0.598444,-0.326777 1.451006,-0.430506 1.523494,-0.18536 2.6053833,-0.703839 3.6424633,-1.745595 C 13.063765,9.3722351 13.486958,6.7070901 12.298438,4.2798181 11.437832,2.5222311 9.2712987,1.0671321 7.5149897,1.0671321 H 7.0021137 V 0.53356608 7.6220537e-8 L 7.6731627,0.08098008 c 2.4426553,0.294752 4.5240853,1.73100602 5.5667803,3.84125902 1.002155,2.028205 0.996327,4.170854 -0.01695,6.2327509 -0.601233,1.223434 -1.860839,2.484728 -3.069866,3.073981 -1.2917783,0.629584 -2.8566393,0.899178 -4.1138243,0.708732 z M 0.59745268,9.7293481 c -0.54043,-1.010985 -0.69742,-3.242307 -0.31796,-4.51922 0.35577,-1.197207 0.99425002,-2.268387 1.87817002,-3.151011 l 0.81812,-0.816928 0.0356,0.622872 c 0.0341,0.596278 0.0133,0.64669 -0.48618,1.18072 -1.51152,1.615947 -1.94493002,4.162635 -1.0744,6.313214 0.0517,0.127775 -0.0471,0.238301 -0.33631,0.376224 -0.38488002,0.183539 -0.41601002,0.183186 -0.51707002,-0.0059 z M 7.0020737,8.5503541 c 0,-0.394242 0.04578,-0.471622 0.354761,-0.599605 0.688926,-0.285363 0.900526,-0.989791 0.464014,-1.544727 -0.127359,-0.161911 -0.363685,-0.327544 -0.525169,-0.368074 -0.252163,-0.06329 -0.293606,-0.139269 -0.293606,-0.538283 0,-0.506825 0.09436,-0.555287 0.663452,-0.340731 0.859647,0.324099 1.414492,1.30861 1.258351,2.232802 -0.09259,0.548034 -0.64822,1.228557 -1.18683,1.453603 -0.620605,0.259305 -0.734973,0.213404 -0.734973,-0.294985 z"
     id="path4521"
     inkscape:connector-curvature="0" />
</svg>
