<?xml version="1.0" encoding="UTF-8" standalone="no"?>
<!-- Created with Inkscape (http://www.inkscape.org/) -->

<svg
   xmlns:dc="http://purl.org/dc/elements/1.1/"
   xmlns:cc="http://creativecommons.org/ns#"
   xmlns:rdf="http://www.w3.org/1999/02/22-rdf-syntax-ns#"
   xmlns:svg="http://www.w3.org/2000/svg"
   xmlns="http://www.w3.org/2000/svg"
   xmlns:sodipodi="http://sodipodi.sourceforge.net/DTD/sodipodi-0.dtd"
   xmlns:inkscape="http://www.inkscape.org/namespaces/inkscape"
   version="1.1"
   width="14"
   height="14"
   viewBox="0 0 14 14"
   id="svg2"
   sodipodi:docname="video_games.svg"
   inkscape:version="0.92.1 r15371">
  <sodipodi:namedview
     pagecolor="#ffffff"
     bordercolor="#666666"
     borderopacity="1"
     objecttolerance="10"
     gridtolerance="10"
     guidetolerance="10"
     inkscape:pageopacity="0"
     inkscape:pageshadow="2"
     inkscape:window-width="726"
     inkscape:window-height="480"
     id="namedview7"
     showgrid="false"
     inkscape:zoom="16.857143"
     inkscape:cx="8.214554"
     inkscape:cy="6.6832305"
     inkscape:window-x="2511"
     inkscape:window-y="220"
     inkscape:window-maximized="0"
     inkscape:current-layer="svg2" />
  <metadata
     id="metadata8">
    <rdf:RDF>
      <cc:Work
         rdf:about="">
        <dc:format>image/svg+xml</dc:format>
        <dc:type
           rdf:resource="http://purl.org/dc/dcmitype/StillImage" />
        <dc:title></dc:title>
      </cc:Work>
    </rdf:RDF>
  </metadata>
  <defs
     id="defs6" />
  <rect
     width="14"
     height="14"
     x="0"
     y="0"
     id="canvas"
     style="fill:none;stroke:none;visibility:hidden" />
  <path
     style="fill:#000000;stroke-width:0.11682961"
     d="M 1.683008,13.899994 C 1.089654,13.760463 0.45155195,13.020947 0.21124495,12.194323 -0.26469805,10.557136 0.47910195,6.6773185 1.577753,5.0663295 2.054844,4.3667535 2.521264,4.0181085 3.196908,3.8560235 4.01187,3.6605175 4.6586,3.7828635 5.694172,4.3284625 l 0.875472,0.461245 0.131118,-0.397292 c 0.07211,-0.218511 0.496756,-0.880205 0.943646,-1.470431 0.446891,-0.590226 0.81253,-1.119904 0.81253,-1.177061 0,-0.05716 -0.129436,-0.188731 -0.287634,-0.292386 C 7.78397,1.2000555 7.226486,1.3826475 6.52255,1.9919005 6.230299,2.2448425 5.816713,2.4778785 5.581854,2.5219385 4.407519,2.7422445 2.949517,2.2174045 1.943687,1.2122995 1.166731,0.4359045 1.098132,-5.0438698e-7 1.752906,-5.0438698e-7 c 0.341227,0 0.512033,0.092180004387 0.887277,0.47884300438698 0.924806,0.952951 2.443607,1.355693 3.10612,0.823653 0.905157,-0.726897 1.218831,-0.880634 1.896854,-0.929678 1.115631,-0.0807 1.748417,0.458238 1.748417,1.489101 0,0.355256 -0.115833,0.601361 -0.55494,1.179065 -0.871964,1.147179 -1.119523,1.515465 -1.059223,1.575767 0.03079,0.03079 0.294513,-0.102002 0.586042,-0.295103 0.732637,-0.485279 1.665797,-0.660594 2.510266,-0.47161 1.152419,0.2579 1.995421,1.42045 2.672452,3.685472 0.258839,0.86595 0.324576,1.356117 0.37258,2.7781505 0.06884,2.039217 -0.05519,2.525258 -0.809072,3.170555 -1.179839,1.009897 -2.656976,0.49187 -4.139047,-1.451551 L 8.525753,11.449301 H 7.045182 5.564612 l -0.500638,0.64892 c -0.75781,0.982262 -1.544274,1.638168 -2.145886,1.789657 -0.583946,0.147039 -0.65822,0.147767 -1.23508,0.01212 z M 4.462952,9.6646835 c 0.06801,-0.08195 0.140168,-0.410535 0.160342,-0.730185 l 0.03668,-0.581181 0.581182,-0.03668 c 0.642497,-0.04055 0.879188,-0.174955 0.879188,-0.499247 0,-0.294791 -0.349923,-0.457124 -0.985371,-0.457124 H 4.60156 v -0.646328 c 0,-0.562969 -0.0339,-0.659129 -0.262866,-0.745587 -0.474601,-0.179211 -0.671771,0.04194 -0.671771,0.753463 v 0.638452 H 3.089399 c -0.458896,0 -0.613738,0.05171 -0.753836,0.251722 -0.294483,0.420433 -0.0564,0.682915 0.619442,0.682915 h 0.564986 l 0.08098,0.610435 c 0.04454,0.335739 0.136608,0.677466 0.2046,0.759392 0.158799,0.19134 0.498567,0.191317 0.657384,-4.6e-5 z m 6.233756,-0.161177 c 0.455558,-0.412274 0.128033,-1.208604 -0.497089,-1.208604 -0.644922,0 -0.920981,0.704871 -0.457556,1.168296 0.284107,0.284106 0.66737,0.300289 0.954645,0.04031 z m -1.25607,-1.198272 c 0.277474,-0.306605 0.193669,-0.813291 -0.180512,-1.09137 -0.261777,-0.194545 -0.347325,-0.206508 -0.584148,-0.08169 -0.35856,0.188985 -0.448719,0.332547 -0.450911,0.717989 -0.0033,0.588238 0.817093,0.895381 1.215571,0.455068 z m 2.424367,-0.08685 c 0.117508,-0.106343 0.213651,-0.300105 0.213651,-0.430581 0,-0.310837 -0.445166,-0.778023 -0.741352,-0.778023 -0.333349,0 -0.660604,0.3372 -0.660604,0.680678 0,0.624923 0.725143,0.947081 1.188305,0.527926 z m -1.305134,-1.091774 c 0.128512,-0.128513 0.233659,-0.338806 0.233659,-0.467319 0,-0.300902 -0.400076,-0.700977 -0.700978,-0.700977 -0.128512,0 -0.338806,0.105146 -0.467318,0.233659 -0.128513,0.128512 -0.23366,0.338806 -0.23366,0.467318 0,0.128513 0.105147,0.338806 0.23366,0.467319 0.128512,0.128512 0.338806,0.233659 0.467318,0.233659 0.128513,0 0.338806,-0.105147 0.467319,-0.233659 z"
     id="path4534"
     inkscape:connector-curvature="0" />
</svg>
